<svg width="16" height="16" viewBox="0 0 16 16" fill="none" xmlns="http://www.w3.org/2000/svg">
<g id="eed_web_icon_global_06_state_yousechenggong_area" clip-path="url(#clip0_387_2764)">
<path id="Subtract" fill-rule="evenodd" clip-rule="evenodd" d="M15.6668 7.99968C15.6668 3.76534 12.2345 0.333008 8.00017 0.333008C3.76583 0.333008 0.333496 3.76534 0.333496 7.99968C0.333496 12.234 3.76583 15.6663 8.00017 15.6663C12.2345 15.6663 15.6668 12.234 15.6668 7.99968ZM11.9983 5.66485L11.6683 5.33485C11.5871 5.25363 11.4769 5.20801 11.362 5.20801C11.2471 5.20801 11.1369 5.25363 11.0557 5.33485L7.16668 9.22352L5.27768 7.33485C5.19642 7.25363 5.08624 7.20801 4.97135 7.20801C4.85646 7.20801 4.74627 7.25363 4.66502 7.33485L4.33502 7.66485C4.29475 7.70509 4.26281 7.75287 4.24102 7.80546C4.21922 7.85805 4.20801 7.91442 4.20801 7.97135C4.20801 8.02828 4.21922 8.08464 4.24102 8.13723C4.26281 8.18983 4.29475 8.23761 4.33502 8.27785L6.69535 10.6378L6.73768 10.6768C6.86543 10.7843 7.02884 10.8399 7.19561 10.8327C7.36237 10.8254 7.52036 10.7559 7.63835 10.6378L11.9983 6.27752C12.0796 6.19626 12.1252 6.08607 12.1252 5.97118C12.1252 5.85629 12.0796 5.74611 11.9983 5.66485Z" fill="#B8C0CC"/>
</g>
<defs>
<clipPath id="clip0_387_2764">
<rect width="16" height="16" fill="white"/>
</clipPath>
</defs>
</svg>
