<svg width="14" height="14" viewBox="0 0 14 14" fill="none" xmlns="http://www.w3.org/2000/svg">
<path d="M12.2501 1.1665C12.3973 1.16646 12.539 1.22204 12.6469 1.32211C12.7548 1.42218 12.8209 1.55933 12.832 1.70609L12.8334 1.74984V9.91651C12.8335 10.0637 12.7779 10.2054 12.6778 10.3133C12.5777 10.4212 12.4406 10.4873 12.2938 10.4984L12.2501 10.4998H5.00917L2.10358 12.7136C1.73112 12.9977 1.2 12.7486 1.16821 12.293L1.16675 12.2498V1.74984C1.1667 1.60267 1.22228 1.46092 1.32235 1.35301C1.42242 1.2451 1.55958 1.179 1.70633 1.16796L1.75008 1.1665H12.2501ZM11.6668 2.33317H2.33342V11.0721L4.34154 9.54259C4.38121 9.51313 4.41358 9.49097 4.44567 9.47143L4.47775 9.45276L4.51187 9.43497C4.59092 9.39472 4.67287 9.3673 4.75979 9.35097C4.81142 9.34163 4.85604 9.33667 4.91437 9.33463L5.01354 9.33318H11.6668V2.33317ZM7.20425 6.41563C7.25404 6.41563 7.30335 6.42544 7.34935 6.44449C7.39535 6.46355 7.43715 6.49148 7.47236 6.52669C7.50757 6.5619 7.5355 6.60369 7.55456 6.6497C7.57361 6.6957 7.58342 6.74501 7.58342 6.7948V7.20313C7.58342 7.25292 7.57361 7.30223 7.55456 7.34823C7.5355 7.39424 7.50757 7.43603 7.47236 7.47124C7.43715 7.50645 7.39535 7.53438 7.34935 7.55344C7.30335 7.57249 7.25404 7.5823 7.20425 7.5823H4.46258C4.41279 7.5823 4.36348 7.57249 4.31748 7.55344C4.27148 7.53438 4.22968 7.50645 4.19447 7.47124C4.15926 7.43603 4.13133 7.39424 4.11228 7.34823C4.09322 7.30223 4.08342 7.25292 4.08342 7.20313V6.7948C4.08342 6.74501 4.09322 6.6957 4.11228 6.6497C4.13133 6.60369 4.15926 6.5619 4.19447 6.52669C4.22968 6.49148 4.27148 6.46355 4.31748 6.44449C4.36348 6.42544 4.41279 6.41563 4.46258 6.41563H7.20425ZM9.53759 4.08288C9.58738 4.08288 9.63668 4.09269 9.68269 4.11174C9.72869 4.1308 9.77049 4.15873 9.8057 4.19394C9.84091 4.22915 9.86883 4.27094 9.88789 4.31695C9.90694 4.36295 9.91675 4.41225 9.91675 4.46205V4.87009C9.91675 4.91988 9.90694 4.96919 9.88789 5.01519C9.86883 5.06119 9.84091 5.10299 9.8057 5.1382C9.77049 5.17341 9.72869 5.20134 9.68269 5.22039C9.63668 5.23945 9.58738 5.24926 9.53759 5.24926H4.46258C4.36202 5.24926 4.26558 5.20931 4.19447 5.1382C4.12336 5.06709 4.08342 4.97065 4.08342 4.87009V4.46176C4.08342 4.36119 4.12336 4.26475 4.19447 4.19364C4.26558 4.12254 4.36202 4.08259 4.46258 4.08259H9.53759V4.08288Z" fill="black"/>
</svg>
