<svg width="14" height="14" viewBox="0 0 14 14" fill="none" xmlns="http://www.w3.org/2000/svg">
<path d="M12.2501 1.1665C12.3973 1.16646 12.539 1.22204 12.6469 1.32211C12.7548 1.42218 12.8209 1.55933 12.832 1.70609L12.8334 1.74984V12.2498C12.8335 12.397 12.7779 12.5388 12.6778 12.6467C12.5777 12.7546 12.4406 12.8207 12.2938 12.8317L12.2501 12.8332H1.75008C1.60291 12.8332 1.46117 12.7776 1.35325 12.6776C1.24534 12.5775 1.17924 12.4403 1.16821 12.2936L1.16675 12.2498V1.74984C1.1667 1.60267 1.22228 1.46092 1.32235 1.35301C1.42242 1.2451 1.55958 1.179 1.70633 1.16796L1.75008 1.1665H12.2501ZM11.6668 2.33317H2.33342V11.6665H11.6668V2.33317ZM10.1209 7.58317C10.2215 7.58317 10.3179 7.62312 10.389 7.69423C10.4601 7.76534 10.5001 7.86178 10.5001 7.96234V8.37067C10.5001 8.47124 10.4601 8.56768 10.389 8.63879C10.3179 8.70989 10.2215 8.74984 10.1209 8.74984H3.87925C3.77869 8.74984 3.68225 8.70989 3.61114 8.63879C3.54003 8.56768 3.50008 8.47124 3.50008 8.37067V7.96234C3.50008 7.86178 3.54003 7.76534 3.61114 7.69423C3.68225 7.62312 3.77869 7.58317 3.87925 7.58317H10.1209ZM4.28758 4.66651C4.33738 4.66651 4.38668 4.67631 4.43268 4.69537C4.47869 4.71442 4.52049 4.74235 4.55569 4.77756C4.5909 4.81277 4.61883 4.85457 4.63789 4.90057C4.65694 4.94657 4.66675 4.99588 4.66675 5.04567V5.45401C4.66675 5.5038 4.65694 5.5531 4.63789 5.59911C4.61883 5.64511 4.5909 5.68691 4.55569 5.72212C4.52049 5.75733 4.47869 5.78526 4.43268 5.80431C4.38668 5.82337 4.33738 5.83317 4.28758 5.83317H3.87925C3.82946 5.83317 3.78015 5.82337 3.73415 5.80431C3.68815 5.78526 3.64635 5.75733 3.61114 5.72212C3.57593 5.68691 3.548 5.64511 3.52894 5.59911C3.50989 5.5531 3.50008 5.5038 3.50008 5.45401V5.04567C3.50008 4.99588 3.50989 4.94657 3.52894 4.90057C3.548 4.85457 3.57593 4.81277 3.61114 4.77756C3.64635 4.74235 3.68815 4.71442 3.73415 4.69537C3.78015 4.67631 3.82946 4.66651 3.87925 4.66651H4.28758ZM10.1209 4.66651C10.1707 4.66651 10.22 4.67631 10.266 4.69537C10.312 4.71442 10.3538 4.74235 10.389 4.77756C10.4242 4.81277 10.4522 4.85457 10.4712 4.90057C10.4903 4.94657 10.5001 4.99588 10.5001 5.04567V5.45401C10.5001 5.5038 10.4903 5.5531 10.4712 5.59911C10.4522 5.64511 10.4242 5.68691 10.389 5.72212C10.3538 5.75733 10.312 5.78526 10.266 5.80431C10.22 5.82337 10.1707 5.83317 10.1209 5.83317H6.21258C6.16279 5.83317 6.11349 5.82337 6.06748 5.80431C6.02148 5.78526 5.97968 5.75733 5.94447 5.72212C5.90926 5.68691 5.88133 5.64511 5.86228 5.59911C5.84322 5.5531 5.83342 5.5038 5.83342 5.45401V5.04567C5.83342 4.99588 5.84322 4.94657 5.86228 4.90057C5.88133 4.85457 5.90926 4.81277 5.94447 4.77756C5.97968 4.74235 6.02148 4.71442 6.06748 4.69537C6.11349 4.67631 6.16279 4.66651 6.21258 4.66651H10.1209Z" fill="black"/>
</svg>
