<svg width="14" height="14" viewBox="0 0 14 14" fill="none" xmlns="http://www.w3.org/2000/svg">
<g clip-path="url(#clip0_678_1404)">
<path d="M7.0005 0.583496C10.5443 0.583496 13.4172 3.45641 13.4172 7.00016C13.4172 10.5439 10.5443 13.4168 7.0005 13.4168C4.20984 13.4168 1.83538 11.6353 0.95221 9.1477L0.906127 9.01353L0.88571 8.94937C0.869198 8.89577 0.864781 8.83918 0.872776 8.78367C0.880772 8.72817 0.900981 8.67512 0.931947 8.62837C0.962914 8.58161 1.00387 8.5423 1.05185 8.51328C1.09984 8.48426 1.15367 8.46625 1.20946 8.46053L1.24854 8.45878H1.68196C1.76099 8.45876 1.83805 8.48343 1.90237 8.52934C1.96669 8.57526 2.01506 8.64012 2.04071 8.71487L2.08563 8.8432L2.12646 8.95258C2.13929 8.98612 2.15154 9.01616 2.16292 9.04328C2.95975 10.9277 4.82584 12.2502 7.0005 12.2502C9.89996 12.2502 12.2505 9.89962 12.2505 7.00016C12.2505 4.1007 9.89996 1.75016 7.0005 1.75016C5.05771 1.75016 3.3605 2.806 2.45313 4.37516H3.50021L3.54367 4.37662C3.69087 4.38705 3.82866 4.45288 3.92925 4.56086C4.02985 4.66883 4.08578 4.81092 4.08578 4.95849C4.08578 5.10607 4.02985 5.24816 3.92925 5.35613C3.82866 5.46411 3.69087 5.52994 3.54367 5.54037L3.49992 5.54183H1.16659L1.12313 5.54037C0.984244 5.52993 0.853678 5.47015 0.755035 5.37183C0.656392 5.27351 0.596183 5.14314 0.585294 5.00429L0.583252 4.95849V2.62516L0.58471 2.58141C0.595147 2.44253 0.654931 2.31196 0.753253 2.21332C0.851575 2.11468 0.981945 2.05447 1.12079 2.04358L1.16659 2.04183L1.21004 2.04329C1.34898 2.05366 1.47961 2.11341 1.57832 2.21174C1.67702 2.31007 1.73727 2.44048 1.74817 2.57937L1.74992 2.62516V3.31116C2.91046 1.6615 4.82963 0.583496 7.00021 0.583496H7.0005ZM6.70854 3.79183L6.752 3.79329C6.89094 3.80366 7.02157 3.86341 7.12028 3.96174C7.21898 4.06007 7.27923 4.19047 7.29013 4.32937L7.29188 4.37516V6.70849H9.62521L9.66867 6.70995C9.81588 6.72038 9.95366 6.78621 10.0543 6.89419C10.1548 7.00216 10.2108 7.14425 10.2108 7.29183C10.2108 7.4394 10.1548 7.58149 10.0543 7.68946C9.95366 7.79744 9.81588 7.86327 9.66867 7.8737L9.62492 7.87516H6.70825L6.66479 7.8737C6.52591 7.86326 6.39535 7.80348 6.2967 7.70516C6.19806 7.60684 6.13785 7.47647 6.12696 7.33762L6.12492 7.29183V4.37516L6.12638 4.33141C6.13681 4.19253 6.1966 4.06196 6.29492 3.96332C6.39324 3.86468 6.52361 3.80447 6.66246 3.79358L6.70825 3.79183H6.70854Z" fill="black"/>
</g>
<defs>
<clipPath id="clip0_678_1404">
<rect width="14" height="14" fill="white"/>
</clipPath>
</defs>
</svg>
