<svg width="14" height="14" viewBox="0 0 14 14" fill="none" xmlns="http://www.w3.org/2000/svg">
<path d="M7.41177 1.75C7.51893 1.75002 7.62403 1.77957 7.71551 1.83539C7.80699 1.89122 7.88132 1.97116 7.93035 2.06646L7.95018 2.10904L12.0761 12.0076C12.0872 12.0342 12.0915 12.0632 12.0888 12.0918C12.086 12.1205 12.0762 12.1481 12.0602 12.1721C12.0442 12.1961 12.0225 12.2157 11.9971 12.2293C11.9717 12.2429 11.9433 12.25 11.9145 12.25H11.1658C11.0909 12.25 11.0178 12.2278 10.9555 12.1863C10.8932 12.1448 10.8446 12.0858 10.8158 12.0167L9.33239 8.45833H4.66689L3.18377 12.0167C3.15498 12.0858 3.10638 12.1448 3.04409 12.1863C2.98181 12.2278 2.90863 12.25 2.83377 12.25H2.08535C2.05657 12.25 2.02823 12.2429 2.00285 12.2293C1.97747 12.2157 1.95583 12.1961 1.93985 12.1722C1.92387 12.1482 1.91404 12.1207 1.91123 12.092C1.90843 12.0634 1.91273 12.0345 1.92377 12.0079L6.04968 2.10875C6.09093 2.0098 6.15865 1.92414 6.2454 1.86116C6.33215 1.79818 6.43458 1.76033 6.54143 1.75175L6.5881 1.75H7.41177ZM7.02268 2.91667H6.97689L5.1531 7.29167H8.84618L7.02297 2.91667H7.02268Z" fill="black"/>
</svg>
