<svg width="14" height="14" viewBox="0 0 14 14" fill="none" xmlns="http://www.w3.org/2000/svg">
<path d="M6.99992 0.291504C10.2683 0.291504 12.9242 2.91417 12.9782 6.16976L12.9791 6.27067V9.47901C12.5888 11.04 11.3857 12.2332 9.84571 12.6815L9.74712 12.7089L8.95583 12.9201C8.88445 13.0688 8.77248 13.1943 8.63283 13.2822C8.49319 13.37 8.33155 13.4166 8.16658 13.4165H6.99992C6.76785 13.4165 6.54529 13.3243 6.3812 13.1602C6.2171 12.9961 6.12492 12.7736 6.12492 12.5415C6.12492 12.3094 6.2171 12.0869 6.3812 11.9228C6.54529 11.7587 6.76785 11.6665 6.99992 11.6665H8.16658C8.46116 11.6665 8.72133 11.812 8.88 12.0349L9.52166 11.8634C10.0646 11.7186 10.5667 11.4502 10.9887 11.0792C11.4107 10.7081 11.7411 10.2445 11.9542 9.72459L11.4184 9.88501L11.328 9.90922C11.0923 9.96513 10.8471 9.96698 10.6107 9.91463C10.3743 9.86227 10.1528 9.75707 9.96281 9.60692C9.77283 9.45676 9.61932 9.26554 9.51377 9.04761C9.40823 8.82967 9.35339 8.59066 9.35337 8.34851V6.52617L9.35629 6.43284C9.37039 6.19109 9.43905 5.95568 9.5571 5.74425C9.67515 5.53282 9.83953 5.35086 10.0379 5.21201C10.2363 5.07316 10.4636 4.98103 10.7027 4.94252C10.9417 4.90402 11.1864 4.92014 11.4184 4.98967L11.9827 5.15884C11.4752 2.8745 9.43708 1.1665 6.99992 1.1665C4.56275 1.1665 2.52458 2.8745 2.01708 5.15884L2.58146 4.98967C2.81339 4.92014 3.05806 4.90401 3.29711 4.9425C3.53617 4.98099 3.76341 5.0731 3.9618 5.21192C4.16018 5.35073 4.32458 5.53266 4.44264 5.74405C4.56071 5.95545 4.6294 6.19083 4.64354 6.43255L4.64646 6.52617V8.34851C4.64644 8.59066 4.59161 8.82967 4.48606 9.04761C4.38051 9.26554 4.227 9.45676 4.03702 9.60692C3.84705 9.75707 3.62554 9.86227 3.38912 9.91463C3.15269 9.96698 2.90748 9.96513 2.67188 9.90922L2.58146 9.88501L1.33604 9.46238C1.24514 9.43559 1.16533 9.38014 1.10851 9.3043C1.0517 9.22845 1.02091 9.13627 1.02075 9.04151V6.27067C1.02075 2.96842 3.69767 0.291504 6.99992 0.291504ZM2.87925 5.81567L2.83258 5.82792L1.89838 6.10792C1.8975 6.13038 1.89692 6.15255 1.89663 6.17501L1.89575 6.27067V8.76559L2.83288 9.04676C2.93787 9.07826 3.04861 9.08568 3.15687 9.06847C3.26513 9.05127 3.36812 9.00987 3.45817 8.94737C3.54822 8.88487 3.62303 8.80287 3.67701 8.70747C3.731 8.61207 3.76279 8.50572 3.77 8.39634L3.77146 8.34851V6.52617C3.77148 6.41652 3.74678 6.30828 3.69918 6.2095C3.65158 6.11072 3.58232 6.02395 3.49655 5.95564C3.41078 5.88733 3.3107 5.83924 3.20378 5.81496C3.09685 5.79067 2.98582 5.79082 2.87896 5.81538L2.87925 5.81567ZM11.1206 5.81567C11.0138 5.79117 10.9028 5.79106 10.7959 5.81535C10.6891 5.83964 10.589 5.8877 10.5033 5.95598C10.4176 6.02425 10.3483 6.11097 10.3007 6.20968C10.2531 6.3084 10.2284 6.41658 10.2284 6.52617V8.34851L10.2298 8.39634C10.237 8.50572 10.2688 8.61207 10.3228 8.70747C10.3768 8.80287 10.4516 8.88487 10.5417 8.94737C10.6317 9.00987 10.7347 9.05127 10.843 9.06847C10.9512 9.08568 11.062 9.07826 11.167 9.04676L12.1041 8.76559V6.27067C12.1041 6.21613 12.1032 6.16217 12.1015 6.10821L11.167 5.82792L11.1206 5.81567Z" fill="black"/>
</svg>
